<?xml version="1.0" encoding="utf-8"?><svg version="1.1" id="Layer_1" xmlns="http://www.w3.org/2000/svg" xmlns:xlink="http://www.w3.org/1999/xlink" x="0px" y="0px" viewBox="0 0 122.88 118.34" style="enable-background:new 0 0 122.88 118.34" xml:space="preserve"><style type="text/css">.st0{fill-rule:evenodd;clip-rule:evenodd;}</style><g><path class="st0" d="M61.37,94.69c6.53,0,11.82,5.29,11.82,11.82c0,6.53-5.29,11.83-11.82,11.83c-6.53,0-11.82-5.29-11.82-11.83 C49.54,99.98,54.83,94.69,61.37,94.69L61.37,94.69z M76.35,22.94c0.09,0.04,0.17,0.09,0.24,0.15l6.41-13 c5.99-9.89-3.32-12.41-5.78-7.99l-9.12,16.77L76.35,22.94L76.35,22.94z M46.53,22.94c-0.09,0.04-0.17,0.09-0.24,0.15l-6.41-13 C33.89,0.19,43.2-2.32,45.66,2.1l9.12,16.77L46.53,22.94L46.53,22.94z M76.02,85.06c0.05-0.02,0.1-0.05,0.15-0.07l10.91-6.13 c4.43,9.73,11.11,24.55,19.04,20.35c2.77-1.46,3.92-5.25,1.39-9.85c-2.45-4.49-3.49-7.37,1.19-10.33 c12.03-5.24,23.77,22.89,2.08,33.36c-4.81,2.03-9.21,2.25-13.24,0.93c-10.4-3.4-14.47-13.4-18.71-22.35L76.02,85.06L76.02,85.06z M85.84,76.17L74.75,82.4L63.08,57.94c2.02-4.23,4.05-8.45,6.08-12.67l15.2,27.93C84.81,74.01,85.3,75.02,85.84,76.17L85.84,76.17z M61.47,54.57l-0.02-0.04l-1.63,3.43l0.01,0.03L48.13,82.4l-11.09-6.23c0.54-1.14,1.03-2.15,1.48-2.97l28.16-51.75l0,0l8.36,4.13 c0.09,0.04,0.18,0.08,0.27,0.1l-6.31,13.16l-0.06-0.1l-1.56,3.28l0.05,0.09L61.47,54.57L61.47,54.57z M53.92,38.75l-2.7-5.66 l-3.65-7.41c0.09-0.02,0.18-0.06,0.27-0.1l8.36-4.13l0,0l3.57,6.56L53.92,38.75L53.92,38.75z M46.86,85.06 c-0.05-0.02-0.1-0.05-0.15-0.07L35.8,78.86c-4.43,9.73-11.11,24.55-19.05,20.35c-2.77-1.46-3.92-5.25-1.39-9.85 c2.45-4.49,3.49-7.37-1.19-10.33c-12.03-5.24-23.77,22.89-2.08,33.36c4.81,2.03,9.21,2.25,13.24,0.93 c10.4-3.4,14.47-13.4,18.71-22.35L46.86,85.06L46.86,85.06z M61.37,98.51c4.42,0,8.01,3.59,8.01,8.01c0,4.42-3.58,8.01-8.01,8.01 c-4.42,0-8.01-3.58-8.01-8.01C53.36,102.09,56.94,98.51,61.37,98.51L61.37,98.51z"/></g></svg>